# Blender v3.5.0 OBJ File: ''
# www.blender.org
mtllib UltraLowPoly.mtl
o UltraLowPoly_Cube.001
v -0.233545 -0.176600 -0.004110
v -0.016473 0.319704 -0.287026
v 0.082364 1.042651 -0.482661
v -0.276554 1.142307 -0.554346
v -0.263603 0.866042 -0.379904
v -0.045635 0.823176 -0.370989
v -0.005978 1.274544 -0.052489
v -0.323053 0.464628 -0.175316
v -0.453079 1.061024 -0.225425
v 0.197873 1.049608 -0.228368
v 0.156317 0.754342 -0.169903
v -0.415311 1.327245 -0.230134
v -0.120908 1.415669 -0.218117
v 0.108175 0.438906 -0.157171
v -0.346562 1.447659 -0.059060
v -0.261221 -1.896262 -0.084660
v -0.102957 -1.905875 -0.250171
v -0.075282 -1.282053 -0.286222
v -0.179257 -1.046736 -0.335419
v -0.270025 -0.933966 -0.136443
v -0.077128 -1.081352 -0.067352
v 0.016846 -0.428656 -0.342048
v 0.061071 -0.662463 -0.133526
v -0.340993 -0.388493 -0.231493
v -0.298840 0.422883 -0.281556
v -0.298029 -1.525993 -0.138288
v -0.008560 -1.510269 -0.101032
v -0.119278 0.130040 -0.677344
v -0.079708 0.034319 -0.566821
v -0.347583 0.849326 -0.630184
v -0.095759 0.473211 -0.490931
v 0.061477 0.814448 -0.616890
v -0.082097 1.074936 -0.644287
v -0.355350 1.039155 -0.453605
v -0.206739 0.037767 -0.538702
v -0.235011 0.029710 -0.667294
v -0.073697 -0.198668 -0.511777
v -0.251495 -0.368850 -0.633457
v -0.065931 -0.367714 -0.631060
v -0.250346 -0.327641 -0.576676
v -0.061941 -0.325152 -0.578794
v -0.082003 -0.440927 -0.508089
v -0.078781 -0.489207 -0.548190
v -0.230497 -0.437711 -0.506620
v -0.237742 -0.490868 -0.541130
v -0.096179 -0.100843 -0.460167
v -0.288715 -0.203101 -0.566581
v -0.112954 -0.282571 -0.493158
v -0.114917 -0.268320 -0.466857
v -0.135460 -0.243551 -0.498505
v -0.090653 -0.374202 -0.490022
v -0.263449 -2.004834 -0.278282
v -0.237213 -1.873325 -0.251091
v -0.110529 -1.926811 -0.068186
v -0.301307 -2.107421 -0.049278
v -0.345986 -2.053882 -0.100332
v -0.074147 -1.874450 -0.112219
v 0.184720 -2.097130 -0.343022
v 0.352665 -2.110997 -0.052682
v 0.365158 -2.132322 -0.283088
v -0.319365 -2.117337 -0.243534
v -0.348832 1.412238 0.237025
v -0.351233 1.079859 0.521507
v 0.083619 1.061177 0.473225
v -0.258113 0.867134 0.381707
v -0.047787 0.822926 0.373066
v -0.269506 0.456987 0.287247
v -0.086417 1.370704 0.287757
v 0.153882 0.715223 0.163914
v 0.110920 0.440220 0.132111
v -0.447260 1.018237 0.211323
v 0.185449 1.069964 0.249925
v -0.428128 1.290791 0.241320
v -0.366373 1.429852 0.036930
v -0.319617 0.453576 0.260480
v -0.372291 0.186213 -0.030779
v -0.249490 -1.890759 0.080235
v -0.221868 -1.927680 0.263689
v -0.113257 -1.862561 0.253283
v -0.018403 -1.254155 0.216481
v -0.239282 -1.146181 0.286048
v -0.245731 -1.011833 0.096911
v 0.036638 -0.403969 0.313183
v 0.095196 -0.061369 0.000215
v -0.209399 -0.464912 0.374206
v -0.358671 -0.355592 0.180652
v 0.007715 0.284487 0.279250
v -0.011831 -1.325227 0.086588
v -0.231009 0.079806 0.670050
v -0.257330 0.453182 0.528782
v -0.082337 0.032309 0.646632
v -0.041113 0.472963 0.521689
v -0.346958 0.816577 0.625326
v 0.052219 0.784371 0.636081
v -0.151069 0.838227 0.689352
v -0.116118 1.149143 0.600732
v -0.257490 -0.208026 0.532620
v -0.204728 0.025068 0.533336
v -0.084829 -0.205967 0.516971
v -0.103837 0.015659 0.538836
v -0.067042 -0.364179 0.634606
v -0.265053 -0.350454 0.628310
v -0.238121 -0.321945 0.573872
v -0.060502 -0.322702 0.579753
v -0.228437 -0.440687 0.505169
v -0.236791 -0.493046 0.545057
v -0.070175 -0.474144 0.523261
v -0.095302 -0.102919 0.459566
v -0.110349 -0.282793 0.492125
v -0.116222 -0.265124 0.465192
v -0.138526 -0.246912 0.494505
v -0.089213 -0.372931 0.489207
v -0.303729 -2.111553 0.262703
v -0.264713 -1.894644 0.212338
v -0.074276 -1.868972 0.112637
v 0.371466 -2.120124 0.277948
v -0.036775 -1.943087 0.266575
v -0.335868 -2.099744 0.058252
v 0.351067 -2.104800 0.053279
v -0.109720 -1.922453 0.066939
v 0.200492 -2.103033 0.344868
v 0.197417 -2.152707 0.196098
v -0.319047 2.208557 -0.153261
v -0.278806 2.020873 -0.188212
v -0.031244 1.594503 -0.093965
v 0.187258 1.650067 0.001162
v 0.137821 2.185310 0.001020
v -0.084700 2.299208 0.002685
v 0.001119 1.569836 0.058354
v -0.051937 1.752754 -0.203880
v -0.194645 1.717797 -0.137512
v -0.105164 2.045755 -0.230007
v -0.055901 2.240347 -0.155181
v 0.130121 1.892804 -0.112638
v -0.276263 2.230181 0.161256
v -0.334511 2.275225 0.002207
v -0.309603 2.088617 0.190311
v -0.105305 2.217169 0.203274
v -0.434391 2.095771 0.000673
v 0.256054 1.875031 0.005766
v -0.277126 1.784347 0.003374
v -0.186525 1.669774 0.121326
v -0.052471 1.768668 0.210536
v 0.204175 1.968698 0.002431
v 0.089359 2.096399 0.153734
v -0.263306 1.463768 0.103029
v -0.076418 1.448207 0.138085
v -0.306927 1.409674 -0.270060
v 0.101655 2.103847 -0.145429
v -0.294225 1.626723 -0.013194
vt 0.561703 0.242417
vt 0.529890 0.262276
vt 0.559655 0.180074
vt 0.601844 0.184208
vt 0.433481 0.458038
vt 0.522724 0.566484
vt 0.462507 0.571332
vt 0.528708 0.491513
vt 0.571611 0.514445
vt 0.578330 0.570946
vt 0.455815 0.196615
vt 0.431817 0.253419
vt 0.405042 0.147906
vt 0.595936 0.479289
vt 0.599409 0.263414
vt 0.570237 0.258236
vt 0.611889 0.263351
vt 0.564203 0.401092
vt 0.592841 0.396888
vt 0.583773 0.271033
vt 0.579657 0.593517
vt 0.581683 0.568950
vt 0.594717 0.184190
vt 0.570768 0.173356
vt 0.383568 0.174072
vt 0.386560 0.160588
vt 0.389850 0.298817
vt 0.374109 0.593908
vt 0.392896 0.588154
vt 0.319664 0.610871
vt 0.427249 0.917569
vt 0.125000 0.608231
vt 0.125000 0.610713
vt 0.398204 0.492816
vt 0.387944 0.459474
vt 0.384236 0.626990
vt 0.142983 0.623865
vt 0.397293 0.192331
vt 0.476474 0.751297
vt 0.544278 0.688689
vt 0.497189 0.481391
vt 0.579631 0.514828
vt 0.687494 0.488656
vt 0.532422 0.428645
vt 0.608519 0.617356
vt 0.407414 0.084277
vt 0.541648 0.000027
vt 0.597350 0.100582
vt 0.375000 0.998615
vt 0.375000 1.000000
vt 0.375000 0.992727
vt 0.375000 0.717465
vt 0.375000 0.733465
vt 0.372534 0.524998
vt 0.375066 0.000000
vt 0.374997 0.000000
vt 0.375000 0.226619
vt 0.375000 0.028660
vt 0.375000 0.037826
vt 0.375000 0.500779
vt 0.687854 0.759353
vt 0.159408 0.556744
vt 0.372485 0.734845
vt 0.135006 0.732494
vt 0.375000 0.269419
vt 0.386463 0.756709
vt 0.375000 0.996023
vt 0.375000 0.885115
vt 0.374994 1.000127
vt 0.375000 1.000000
vt 0.458844 0.153687
vt 0.492917 0.263829
vt 0.375004 0.054363
vt 0.377385 0.267627
vt 0.375000 0.209529
vt 0.375000 0.736398
vt 0.369315 0.533679
vt 0.375000 0.021797
vt 0.374992 0.428141
vt 0.298802 0.500000
vt 0.130792 0.537776
vt 0.375158 0.979545
vt 0.451735 0.263870
vt 0.530830 0.269206
vt 0.552010 0.179179
vt 0.520434 0.572286
vt 0.570985 0.252344
vt 0.538335 0.283955
vt 0.601061 0.251220
vt 0.569258 0.253593
vt 0.574126 0.514122
vt 0.592455 0.518772
vt 0.537592 0.486190
vt 0.577230 0.503542
vt 0.592155 0.362335
vt 0.430586 0.471616
vt 0.591735 0.384638
vt 0.600053 0.468423
vt 0.615738 0.237405
vt 0.388777 0.264272
vt 0.462363 0.303557
vt 0.537576 0.477168
vt 0.398372 0.522057
vt 0.387969 0.556657
vt 0.431281 0.212804
vt 0.397410 0.175888
vt 0.365893 0.601255
vt 0.396663 0.302593
vt 0.149314 0.615009
vt 0.461255 0.751349
vt 0.552325 0.692146
vt 0.459405 0.189852
vt 0.462275 0.115957
vt 0.627542 0.679853
vt 0.529694 0.486995
vt 0.375055 0.490043
vt 0.375000 0.718193
vt 0.584928 0.828574
vt 0.535099 0.000000
vt 0.383782 0.027901
vt 0.595922 0.100975
vt 0.375000 0.986047
vt 0.375000 0.984565
vt 0.375000 0.225420
vt 0.371951 0.614874
vt 0.374994 0.000000
vt 0.375000 0.000000
vt 0.375000 0.022606
vt 0.376197 0.211792
vt 0.375000 0.000000
vt 0.716831 0.528646
vt 0.375000 0.997001
vt 0.375117 0.763646
vt 0.375000 0.988914
vt 0.374931 0.853839
vt 0.463966 0.570383
vt 0.316445 0.631789
vt 0.372671 0.530169
vt 0.304743 0.500000
vt 0.374989 0.033774
vt 0.131580 0.531611
vt 0.133242 0.734530
vt 0.361636 0.750000
vt 0.420469 0.510770
vt 0.375113 0.225281
vt 0.375000 0.990779
vt 0.464758 0.901854
vt 0.520912 0.128015
vt 0.602058 0.254682
vt 0.496977 0.273576
vt 0.511184 0.401594
vt 0.679308 0.527683
vt 0.530237 0.525119
vt 0.715344 0.622639
vt 0.585534 0.619217
vt 0.620894 0.447000
vt 0.458879 0.542844
vt 0.372088 0.623562
vt 0.301163 0.493791
vt 0.424555 0.246349
vt 0.431153 0.379077
vt 0.484384 0.619014
vt 0.456032 0.621422
vt 0.625000 0.125941
vt 0.706034 0.511766
vt 0.830064 0.520201
vt 0.522879 0.516307
vt 0.519830 0.253321
vt 0.590624 0.427457
vt 0.620837 0.258521
vt 0.270645 0.570065
vt 0.406566 0.226857
vt 0.439097 0.129274
vt 0.383741 0.144197
vt 0.436642 0.391389
vt 0.535989 0.149446
vt 0.467268 0.400112
vt 0.374351 0.419344
vt 0.339625 0.447552
vt 0.414243 0.497595
vt 0.431358 0.229819
vt 0.559195 0.469584
vt 0.375000 0.125790
vt 0.368572 0.725097
vt 0.132170 0.729921
vt 0.375000 0.986045
vt 0.568008 0.847646
vt 0.375000 1.000000
vt 0.383746 0.156714
vt 0.854157 0.623858
vt 0.855806 0.514699
vt 0.375000 1.000000
vt 0.147090 0.522426
vt 0.139438 0.735747
vt 0.375000 0.999181
vt 0.375000 1.000000
vt 0.375000 0.737624
vt 0.375000 0.433651
vn -0.9595 -0.0393 -0.2790
vn -0.8592 -0.4351 -0.2693
vn -0.9727 -0.0725 -0.2207
vn -0.8599 0.4232 -0.2855
vn 0.3822 -0.0048 -0.9241
vn 0.9200 -0.2033 -0.3351
vn 0.9364 -0.0932 -0.3382
vn 0.7692 -0.5746 -0.2794
vn 0.8622 0.2532 -0.4387
vn 0.9446 0.2537 -0.2084
vn -0.9705 -0.0624 -0.2331
vn -0.6074 -0.0838 -0.7899
vn -0.9980 0.0407 -0.0482
vn 0.4443 -0.0638 -0.8936
vn -0.7298 0.0004 -0.6836
vn -0.7790 0.0203 -0.6267
vn -0.2814 0.8394 -0.4650
vn 0.3749 0.7270 -0.5752
vn 0.2326 0.4505 -0.8620
vn -0.4929 0.4999 -0.7121
vn 0.8774 0.4788 -0.0294
vn 0.9368 0.2763 0.2145
vn -0.9077 0.3314 0.2574
vn -0.7465 0.5889 -0.3096
vn -0.9584 0.0468 0.2816
vn -0.9113 -0.1284 0.3911
vn -0.4117 -0.0675 -0.9088
vn 0.9219 -0.0717 0.3807
vn 0.9808 -0.1435 0.1323
vn 0.0647 -0.0242 0.9976
vn -0.6965 0.2128 0.6853
vn 0.5621 -0.0214 -0.8268
vn 0.5853 -0.1008 -0.8045
vn 0.9962 -0.0811 0.0306
vn -0.8544 -0.4802 -0.1986
vn -0.9201 -0.0688 -0.3856
vn 0.3065 0.2291 0.9239
vn 0.9364 -0.3196 0.1453
vn 0.4593 0.3691 -0.8080
vn 0.8244 -0.0293 -0.5653
vn -0.5834 0.1198 0.8033
vn 0.1828 -0.1656 0.9691
vn 0.9186 0.1190 0.3769
vn -0.9455 -0.0479 0.3222
vn 0.3559 0.1629 0.9202
vn -0.4331 -0.4358 0.7890
vn -0.7474 -0.1437 0.6486
vn 0.8947 -0.0322 0.4455
vn 0.5341 -0.0722 0.8423
vn 0.5475 -0.8363 -0.0296
vn -0.1383 -0.1165 0.9835
vn -0.5561 -0.8288 0.0622
vn -0.4957 -0.0077 0.8684
vn 0.6603 -0.2674 -0.7018
vn -0.6470 -0.3253 -0.6896
vn 0.9579 -0.0808 0.2754
vn -0.6295 -0.2074 -0.7488
vn 0.1002 -0.9944 -0.0320
vn -0.5848 0.1188 -0.8024
vn -0.9640 0.0288 0.2645
vn -0.4763 0.1432 -0.8675
vn -0.6633 -0.5747 -0.4794
vn 0.8146 -0.1393 0.5631
vn 0.8549 -0.2347 -0.4626
vn -0.4216 -0.5527 0.7189
vn 0.2047 -0.1269 -0.9706
vn -0.3023 -0.0625 0.9511
vn -0.8985 -0.3959 0.1895
vn -0.9668 -0.1390 0.2143
vn 0.9276 -0.1754 0.3298
vn -0.7839 0.1863 0.5922
vn -0.6462 -0.2177 -0.7314
vn -0.6843 -0.0474 0.7277
vn -0.8826 0.0255 0.4695
vn 0.8395 0.2433 0.4859
vn 0.7876 -0.0391 0.6149
vn 0.6189 -0.2516 -0.7441
vn 0.8311 -0.0358 0.5550
vn -0.0353 0.1522 0.9877
vn 0.4858 0.0071 0.8741
vn 0.1276 0.5602 0.8185
vn 0.4536 0.7872 0.4180
vn -0.4708 0.7891 0.3944
vn -0.8055 -0.0840 0.5866
vn -0.3564 0.1334 0.9248
vn 0.5060 0.1848 0.8425
vn 0.7411 -0.0360 0.6704
vn 0.9547 -0.1008 0.2801
vn -0.8298 -0.0247 0.5575
vn -0.9793 -0.0793 0.1862
vn 0.7448 -0.0749 -0.6631
vn -0.3195 -0.0248 0.9473
vn -0.7379 -0.1251 -0.6632
vn 0.2983 0.1938 -0.9346
vn 0.9680 -0.0949 -0.2323
vn -0.9392 0.1490 0.3094
vn -0.6471 0.1841 -0.7398
vn 0.6915 0.2219 -0.6875
vn 0.7710 -0.5907 0.2380
vn 0.6167 -0.2960 0.7294
vn 0.8712 -0.0050 -0.4909
vn 0.4474 0.1949 -0.8728
vn -0.7970 -0.1233 -0.5913
vn -0.6148 0.1625 -0.7718
vn -0.4670 -0.0339 -0.8836
vn -0.5590 -0.0760 -0.8257
vn -0.5279 -0.8492 0.0171
vn 0.6657 -0.6283 -0.4025
vn -0.0470 -0.2225 -0.9738
vn -0.3901 -0.8525 -0.3479
vn -0.7878 -0.2528 0.5617
vn -0.6826 -0.2900 0.6708
vn 0.4204 -0.5949 -0.6851
vn 0.1162 -0.9928 0.0280
vn 0.9677 -0.1155 0.2243
vn 0.0315 -0.9995 -0.0007
vn 0.8794 -0.1346 0.4566
vn 0.2191 -0.2026 0.9544
vn -0.7165 -0.4147 -0.5609
vn -0.6455 -0.5095 0.5689
vn 0.7720 -0.0676 -0.6321
vn 0.3508 0.7300 0.5865
vn -1.0000 0.0079 0.0035
vn -0.5066 0.5088 -0.6961
vn -0.5492 -0.1195 -0.8271
vn 0.0683 0.0890 -0.9937
vn 0.2149 0.7097 -0.6709
vn 0.6379 0.2657 -0.7228
vn 0.1752 0.9843 0.0194
vn 0.7761 0.6297 0.0332
vn 0.6173 -0.0770 -0.7830
vn 0.8143 -0.5732 0.0915
vn 0.4293 -0.3013 -0.8514
vn -0.5230 -0.4044 -0.7503
vn 0.1613 -0.3398 -0.9266
vn 0.9192 0.3597 -0.1606
vn 0.9995 -0.0162 0.0273
vn -0.5600 0.8277 0.0354
vn 0.1508 0.5626 0.8129
vn -0.4094 0.6385 0.6517
vn 0.6023 0.2717 0.7506
vn -0.5775 0.0267 0.8159
vn 0.7458 -0.3786 0.5480
vn -0.4675 -0.1769 0.8661
vn -0.9539 -0.3003 -0.0020
vn -0.9595 0.1881 -0.2095
vn 0.1417 -0.3066 0.9412
vn -0.7380 -0.6081 0.2926
vn 0.6411 0.3442 0.6859
vn -0.3944 0.6754 0.6232
usemtl None
s 1
f 34/1/1 5/2/2 9/3/3
f 9/3/3 12/4/4 34/1/1
f 2/5/5 11/6/6 14/7/7
f 6/8/8 3/9/9 11/6/6
f 3/9/9 10/10/10 11/6/6
f 8/11/11 25/12/12 76/13/13
f 5/2/2 6/8/8 2/5/5
f 28/14/14 36/15/15 30/16/16
f 148/17/17 13/18/18 33/19/19
f 13/18/18 10/10/10 3/9/9
f 33/19/19 13/18/18 3/9/9
f 12/4/4 148/17/17 4/20/20
f 7/21/21 72/22/22 10/10/10
f 73/23/23 15/24/24 12/4/4
f 12/4/4 9/3/3 73/23/23
f 26/25/25 20/26/26 19/27/27
f 27/28/28 23/29/29 21/30/30
f 16/31/31 21/30/30 26/32/25
f 26/32/25 21/30/30 20/33/26
f 19/27/27 22/34/32 18/35/33
f 23/29/29 84/36/34 21/30/30
f 14/7/7 84/36/34 23/29/29
f 25/12/12 2/5/5 22/34/32
f 21/30/30 84/36/34 1/37/35
f 24/38/36 25/12/12 19/27/27
f 27/28/28 21/30/30 54/39/37
f 57/40/38 27/28/28 54/39/37
f 17/41/39 27/28/28 57/40/38
f 32/42/40 28/14/14 33/19/19
f 34/1/1 30/16/16 35/43/41
f 31/44/42 29/45/43 3/9/9
f 4/20/20 33/19/19 30/16/16
f 33/19/19 4/20/20 148/17/17
f 34/1/1 4/20/20 30/16/16
f 5/2/2 34/1/1 31/44/42
f 47/46/44 46/47/45 35/48/41
f 50/49/46 47/50/44 40/51/47
f 50/49/46 40/51/47 41/52/48
f 41/52/48 42/53/49 43/54/50
f 46/47/45 50/55/46 49/56/51
f 45/57/52 44/58/53 40/59/47
f 28/14/14 29/45/43 39/60/54
f 39/60/54 29/45/43 41/52/48
f 35/43/41 36/15/15 47/46/44
f 29/45/43 35/43/41 46/61/45
f 45/62/52 42/63/49 44/64/53
f 43/54/50 45/57/52 38/65/55
f 37/66/56 48/67/57 50/49/46
f 50/55/46 46/47/45 47/46/44
f 37/66/56 51/68/58 48/67/57
f 22/34/32 2/5/5 14/7/7
f 49/69/51 48/70/57 51/68/58
f 16/71/31 53/72/59 56/73/60
f 57/40/38 54/39/37 17/41/39
f 53/72/59 52/74/61 61/75/62
f 17/41/39 54/39/37 59/76/63
f 17/41/39 59/76/63 60/77/64
f 61/75/62 55/78/65 56/73/60
f 58/79/66 61/75/62 52/74/61
f 58/80/66 60/77/64 61/81/62
f 54/39/37 55/82/65 59/76/63
f 67/83/67 65/84/68 71/85/69
f 69/86/70 10/10/10 72/22/22
f 65/84/68 63/87/71 71/85/69
f 90/88/72 89/89/73 93/90/74
f 63/87/71 73/23/23 71/85/69
f 69/86/70 72/22/22 64/91/75
f 25/12/12 8/11/11 9/3/3 5/2/2
f 91/92/76 92/93/77 94/94/78
f 93/90/74 89/89/73 95/95/79
f 67/83/67 87/96/80 65/84/68
f 96/97/81 68/98/82 62/99/83
f 72/22/22 68/98/82 64/91/75
f 96/97/81 64/91/75 68/98/82
f 63/87/71 62/99/83 73/23/23
f 73/23/23 62/99/83 15/24/24
f 71/85/69 73/23/23 9/3/3
f 81/100/84 78/101/85 79/102/86
f 83/103/87 79/102/86 80/104/88
f 75/105/89 76/13/13 86/106/90
f 1/37/35 84/36/34 88/107/91
f 75/105/89 86/106/90 85/108/92
f 67/83/67 75/105/89 85/108/92
f 82/109/93 88/107/91 120/110/94
f 88/107/91 115/111/95 120/110/94
f 114/112/96 81/100/84 77/113/97
f 89/89/73 91/92/76 95/95/79
f 100/114/98 90/88/72 92/93/77
f 66/115/99 90/88/72 65/84/68
f 101/116/100 91/92/76 89/89/73
f 104/117/101 108/118/102 91/92/76
f 108/119/102 97/120/103 98/121/104
f 104/117/101 105/122/105 103/123/106
f 106/124/107 107/125/108 101/116/100
f 110/126/109 111/127/110 97/120/103
f 105/128/105 102/129/111 103/130/106
f 105/128/105 106/124/107 102/129/111
f 101/116/100 107/125/108 104/117/101
f 89/89/73 98/131/104 97/120/103
f 101/116/100 89/89/73 102/129/111
f 109/132/112 99/133/113 97/134/103
f 112/135/114 99/133/113 109/132/112
f 70/136/115 87/96/80 83/103/87
f 89/89/73 90/88/72 98/131/104
f 92/93/77 91/92/76 100/114/98
f 122/137/116 116/138/117 121/139/118
f 118/140/119 114/112/96 77/113/97
f 113/141/120 118/142/119 122/137/116
f 118/142/119 119/143/121 122/137/116
f 117/144/122 79/102/86 78/101/85
f 113/145/120 78/101/85 114/112/96
f 120/110/94 118/146/119 77/147/97
f 79/102/86 115/111/95 80/104/88
f 139/148/123 123/149/124 124/150/125
f 132/151/126 133/152/127 149/153/128
f 133/152/127 128/154/129 127/155/130
f 123/149/124 133/156/127 132/151/126
f 134/157/131 126/158/132 125/159/133
f 131/160/134 124/150/125 130/161/135
f 134/157/131 144/162/136 140/163/137
f 139/148/123 124/150/125 131/160/134
f 130/161/135 134/157/131 125/159/133
f 149/153/128 134/157/131 132/151/126
f 134/157/131 149/153/128 144/162/136
f 139/148/123 136/164/138 123/149/124
f 127/155/130 128/154/129 138/165/139
f 138/165/139 128/154/129 135/166/140
f 144/162/136 127/155/130 145/167/141
f 137/168/142 138/169/139 135/170/140
f 126/158/132 140/163/137 129/171/143
f 142/172/144 141/173/145 150/174/146
f 140/163/137 143/175/147 129/171/143
f 145/167/141 127/155/130 138/165/139
f 150/174/146 15/24/24 74/176/148
f 142/172/144 147/177/149 129/178/143
f 131/160/134 125/179/133 150/174/146
f 150/174/146 125/179/133 15/24/24
f 13/18/18 148/17/17 15/24/24
f 68/98/82 7/21/21 147/180/149
f 147/177/149 146/181/150 62/99/83
f 74/176/148 62/99/83 146/181/150
f 7/21/21 13/182/18 125/159/133
f 14/7/7 11/6/6 69/86/70
f 19/27/27 18/35/33 17/41/39 53/72/59
f 11/6/6 10/10/10 69/86/70
f 34/1/1 12/4/4 4/20/20
f 2/5/5 6/8/8 11/6/6
f 13/182/18 7/21/21 10/10/10
f 12/4/4 15/24/24 148/17/17
f 25/12/12 5/2/2 2/5/5
f 1/183/35 76/13/13 20/26/26
f 27/28/28 18/35/33 23/29/29
f 20/26/26 76/13/13 24/38/36
f 19/27/27 20/26/26 24/38/36
f 20/33/26 21/30/30 1/37/35
f 23/29/29 18/35/33 22/34/32
f 25/12/12 24/38/36 76/13/13
f 19/27/27 25/12/12 22/34/32
f 14/7/7 23/29/29 22/34/32
f 16/31/31 54/39/37 21/30/30
f 17/41/39 18/35/33 27/28/28
f 59/184/63 55/185/65 61/81/62 60/77/64
f 53/72/59 26/25/25 19/27/27
f 53/72/59 16/71/31 26/25/25
f 35/43/41 30/16/16 36/15/15
f 32/42/40 29/45/43 28/14/14
f 31/44/42 35/43/41 29/45/43
f 33/19/19 28/14/14 30/16/16
f 3/9/9 29/45/43 32/42/40
f 31/44/42 34/1/1 35/43/41
f 3/9/9 32/42/40 33/19/19
f 6/8/8 31/44/42 3/9/9
f 6/8/8 5/2/2 31/44/42
f 38/65/55 36/15/15 28/14/14
f 41/52/48 29/45/43 37/66/56
f 28/14/14 39/60/54 38/65/55
f 47/46/44 36/15/15 38/65/55
f 41/52/48 40/51/47 44/186/53
f 43/54/50 42/63/49 45/62/52
f 37/66/56 29/45/43 46/61/45
f 38/65/55 45/57/52 40/59/47
f 39/60/54 41/52/48 43/54/50
f 47/46/44 38/65/55 40/59/47
f 39/60/54 43/54/50 38/65/55
f 41/52/48 44/186/53 42/53/49
f 37/66/56 50/49/46 41/52/48
f 46/187/45 49/69/51 51/68/58
f 46/187/45 51/68/58 37/66/56
f 56/73/60 53/72/59 61/75/62
f 17/41/39 60/77/64 58/79/66
f 55/82/65 16/31/31 56/188/60
f 53/72/59 17/41/39 52/74/61
f 17/41/39 58/79/66 52/74/61
f 95/95/79 96/97/81 63/87/71 93/90/74
f 54/39/37 16/31/31 55/82/65
f 70/136/115 14/7/7 69/86/70
f 84/36/34 14/7/7 70/136/115
f 66/115/99 87/96/80 69/86/70
f 75/105/89 71/85/69 8/11/11
f 66/115/99 69/86/70 64/91/75
f 67/83/67 71/85/69 75/105/89
f 87/96/80 70/136/115 69/86/70
f 65/84/68 87/96/80 66/115/99
f 68/98/82 147/177/149 62/99/83
f 63/87/71 96/97/81 62/99/83
f 72/22/22 7/21/21 68/98/82
f 62/99/83 74/176/148 15/24/24
f 76/13/13 75/105/89 8/11/11
f 8/11/11 71/85/69 9/3/3
f 82/189/93 76/13/13 1/183/35
f 86/106/90 76/13/13 82/189/93
f 83/103/87 85/108/92 79/102/86
f 79/102/86 85/108/92 81/100/84
f 81/100/84 86/106/90 82/189/93
f 81/100/84 85/108/92 86/106/90
f 82/109/93 1/37/35 88/107/91
f 80/104/88 84/36/34 83/103/87
f 88/107/91 84/36/34 80/104/88
f 85/108/92 83/103/87 87/96/80
f 87/96/80 67/83/67 85/108/92
f 83/103/87 84/36/34 70/136/115
f 77/147/97 82/109/93 120/110/94
f 88/107/91 80/104/88 115/111/95
f 77/113/97 81/100/84 82/189/93
f 78/101/85 81/100/84 114/112/96
f 95/95/79 91/92/76 94/94/78
f 100/114/98 98/131/104 90/88/72
f 94/94/78 92/93/77 64/91/75
f 136/190/138 128/154/129 133/152/127 123/191/124
f 63/87/71 90/88/72 93/90/74
f 95/95/79 94/94/78 96/97/81
f 96/97/81 94/94/78 64/91/75
f 92/93/77 90/88/72 66/115/99
f 65/84/68 90/88/72 63/87/71
f 64/91/75 92/93/77 66/115/99
f 104/117/101 99/133/113 108/118/102
f 91/92/76 108/118/102 100/114/98
f 102/129/111 106/124/107 101/116/100
f 99/133/113 112/135/114 108/118/102
f 108/119/102 110/126/109 97/120/103
f 103/130/106 102/129/111 97/120/103
f 101/116/100 104/117/101 91/92/76
f 102/129/111 89/89/73 97/120/103
f 100/114/98 108/118/102 98/131/104
f 111/192/110 109/132/112 97/134/103
f 106/193/107 105/194/105 107/125/108
f 107/125/108 105/122/105 104/117/101
f 99/133/113 104/117/101 103/123/106
f 99/133/113 103/123/106 97/134/103
f 112/135/114 110/195/109 108/118/102
f 110/195/109 112/135/114 109/196/112
f 120/110/94 115/111/95 117/144/122
f 116/138/117 122/137/116 119/197/121
f 114/112/96 118/140/119 113/145/120
f 117/144/122 119/197/121 120/110/94
f 121/198/118 116/138/117 117/144/122
f 117/144/122 116/138/117 119/197/121
f 117/144/122 115/111/95 79/102/86
f 113/145/120 121/198/118 78/101/85
f 121/139/118 113/141/120 122/137/116
f 78/101/85 121/198/118 117/144/122
f 120/110/94 119/197/121 118/146/119
f 135/170/140 136/164/138 139/148/123 137/168/142
f 125/159/133 126/158/132 129/171/143
f 144/162/136 149/153/128 127/155/130
f 149/153/128 133/152/127 127/155/130
f 124/150/125 123/149/124 132/151/126
f 134/157/131 140/163/137 126/158/132
f 131/160/134 130/161/135 125/159/133
f 130/161/135 124/150/125 132/151/126
f 130/161/135 132/151/126 134/157/131
f 141/173/145 139/148/123 131/160/134
f 141/173/145 131/160/134 150/174/146
f 135/166/140 128/154/129 136/190/138
f 143/175/147 145/167/141 138/169/139
f 129/178/143 143/175/147 142/172/144
f 142/172/144 143/175/147 137/168/142
f 137/168/142 143/175/147 138/169/139
f 145/167/141 140/163/137 144/162/136
f 140/163/137 145/167/141 143/175/147
f 141/173/145 142/172/144 139/148/123
f 139/148/123 142/172/144 137/168/142
f 129/171/143 147/180/149 7/21/21
f 142/172/144 146/181/150 147/177/149
f 142/172/144 150/174/146 146/181/150
f 150/174/146 74/176/148 146/181/150
f 125/159/133 129/171/143 7/21/21
f 13/18/18 15/24/24 125/179/133
